<svg width="512" height="512" viewBox="0 0 512 512" fill="none" xmlns="http://www.w3.org/2000/svg">
  <rect width="512" height="512" fill="#D9FF00"/>
  <path d="M132 113H188L236 165V229L188 181V399H132V113Z" fill="black"/>
  <path d="M380 113H324L276 165V229L324 181V399H380V113Z" fill="black"/>
  <path d="M256 148C267.046 148 276 139.046 276 128C276 116.954 267.046 108 256 108C244.954 108 236 116.954 236 128C236 139.046 244.954 148 256 148Z" fill="black"/>
  <path d="M223 165H289C318.271 165 342 188.729 342 218V235C342 241.627 336.627 247 330 247C323.373 247 318 241.627 318 235V218C318 201.431 304.569 188 288 188H224C207.431 188 194 201.431 194 218V235C194 241.627 188.627 247 182 247C175.373 247 170 241.627 170 235V218C170 188.729 193.729 165 223 165Z" fill="black"/>
  <path d="M204 223C204 204.775 218.775 190 237 190H275C293.225 190 308 204.775 308 223V285L271 327H241L204 285V223Z" fill="black"/>
  <circle cx="230" cy="221" r="13" fill="#D9FF00"/>
  <circle cx="282" cy="221" r="13" fill="#D9FF00"/>
  <circle cx="179" cy="221" r="8" fill="black"/>
  <circle cx="333" cy="221" r="8" fill="black"/>
</svg>
